<svg fill="#ffffff" xmlns="http://www.w3.org/2000/svg" data-name="Layer 1" viewBox="0 0 100 100" x="0px" y="0px"><title>Home</title><path d="M100,49.33a6,6,0,0,1-6.3,6.25c-2.24,0-4.47,0-6.85,0v1.77q0,13.93,0,27.86a9.48,9.48,0,0,1-9.66,9.68c-4.7,0-9.4,0-14.09,0-2.83,0-4.31-1.49-4.31-4.36,0-5.46,0-10.91,0-16.37,0-4.39-2.19-7.53-6-8.85-5.35-1.86-11.28,1.92-11.49,7.58s-0.16,11.56-.07,17.34c0,2.85-1.56,4.8-4.69,4.7-4.62-.15-9.25,0-13.87,0a9.48,9.48,0,0,1-9.53-9.48c0-9.21,0-18.43,0-27.64V55.58c-2.28,0-4.41,0-6.54,0-4.25,0-6.66-2.45-6.59-6.69A33.5,33.5,0,0,1,.36,43.4a9,9,0,0,1,3.58-5.51Q23.41,22.77,42.86,7.63a11.2,11.2,0,0,1,14.28,0Q76.5,22.71,95.88,37.77A10.08,10.08,0,0,1,100,46.18C100,47.23,100,48.28,100,49.33Z"></path></svg>